# xmcd
#
# Track frame offsets: 
#        150
#        13946
#        33970
#        48979
#        62464
#        76559
#        91867
#        106422
#        122121
#        136510
#        152171
#        166319
#        180033
#        192132
#
# Disc length: 2844 seconds
#
# Revision: 1
# Processed by: cddbd v1.5.2PL0 Copyright (c) Steve Scherf et al.
# Submitted via: ExactAudioCopyFreeDBPlugin 1.0
#
DISCID=980b1a0e
DTITLE=Linda Feller - Weil Du mich liebst
DYEAR=1999
DGENRE=Country
TTITLE0=Du weisst, was Frauen lieben
TTITLE1=Wo dein Herz zu Hause ist
TTITLE2=Er ist so wie Du
TTITLE3=Life is good
TTITLE4=Es bleibt die Liebe zu Dir
TTITLE5=Verbotene Liebe
TTITLE6=Mir geht es gut (weil Du mich liebst)
TTITLE7=Nadelstreifenmann
TTITLE8=Lass mich heut´ Nacht nicht allein
TTITLE9=Du kannst nicht kommen und geh´n...
TTITLE10=Dieses Lied sing ich für die Liebe
TTITLE11=Wie ein Stern in der Nacht
TTITLE12=Lass die Leute reden
TTITLE13=Das Taschentuch
EXTD=YEAR: 1999 ID3G: 13
EXTT0=
EXTT1=
EXTT2=
EXTT3=
EXTT4=
EXTT5=
EXTT6=
EXTT7=
EXTT8=
EXTT9=
EXTT10=
EXTT11=
EXTT12=
EXTT13=
PLAYORDER=
